<?xml version="1.0" encoding="utf-8" standalone="no"?>
<!DOCTYPE svg PUBLIC "-//W3C//DTD SVG 1.1//EN"
  "http://www.w3.org/Graphics/SVG/1.1/DTD/svg11.dtd">
<svg xmlns:xlink="http://www.w3.org/1999/xlink" width="216pt" height="216pt" viewBox="0 0 216 216" xmlns="http://www.w3.org/2000/svg" version="1.1">
 <metadata>
  <rdf:RDF xmlns:dc="http://purl.org/dc/elements/1.1/" xmlns:cc="http://creativecommons.org/ns#" xmlns:rdf="http://www.w3.org/1999/02/22-rdf-syntax-ns#">
   <cc:Work>
    <dc:type rdf:resource="http://purl.org/dc/dcmitype/StillImage"/>
    <dc:date>2023-10-17T21:55:01.407178</dc:date>
    <dc:format>image/svg+xml</dc:format>
    <dc:creator>
     <cc:Agent>
      <dc:title>Matplotlib v3.8.0, https://matplotlib.org/</dc:title>
     </cc:Agent>
    </dc:creator>
   </cc:Work>
  </rdf:RDF>
 </metadata>
 <defs>
  <style type="text/css">*{stroke-linejoin: round; stroke-linecap: butt}</style>
 </defs>
 <g id="figure_1">
  <g id="patch_1">
   <path d="M 0 216 
L 216 216 
L 216 0 
L 0 0 
z
" style="fill: #ffffff"/>
  </g>
  <g id="axes_1">
   <g id="patch_2">
    <path d="M 15.12 198.72 
L 200.88 198.72 
L 200.88 21.6 
L 15.12 21.6 
z
" style="fill: #ffffff"/>
   </g>
   <g id="PolyCollection_1">
    <path d="M 67.105794 66.357465 
L 67.105794 128.739021 
L 67.940285 128.739021 
L 68.774776 128.739021 
L 69.609267 128.739021 
L 70.443758 128.739021 
L 71.278249 128.739021 
L 72.112739 128.739021 
L 72.94723 128.739021 
L 73.781721 128.739021 
L 74.616212 128.739021 
L 75.450703 128.739021 
L 76.285194 128.739021 
L 77.119685 128.739021 
L 77.954176 128.739021 
L 78.788667 128.739021 
L 79.623158 128.739021 
L 80.457648 128.739021 
L 81.292139 128.739021 
L 82.12663 128.739021 
L 82.961121 128.739021 
L 83.795612 128.739021 
L 84.630103 128.739021 
L 85.464594 128.739021 
L 86.299085 128.739021 
L 87.133576 128.739021 
L 87.968067 128.739021 
L 88.802558 128.739021 
L 89.637048 128.739021 
L 90.471539 128.739021 
L 91.30603 128.739021 
L 92.140521 128.739021 
L 92.975012 128.739021 
L 93.809503 128.739021 
L 94.643994 128.739021 
L 95.478485 128.739021 
L 96.312976 128.739021 
L 97.147467 128.739021 
L 97.981957 128.739021 
L 98.816448 128.739021 
L 99.650939 128.739021 
L 100.48543 128.739021 
L 101.319921 128.739021 
L 102.154412 128.739021 
L 102.988903 128.739021 
L 103.823394 128.739021 
L 104.657885 128.739021 
L 105.492376 128.739021 
L 106.326866 128.739021 
L 107.161357 128.739021 
L 107.995848 128.739021 
L 108.830339 128.739021 
L 109.66483 128.739021 
L 110.499321 128.739021 
L 111.333812 128.739021 
L 112.168303 128.739021 
L 113.002794 128.739021 
L 113.837285 128.739021 
L 114.671776 128.739021 
L 115.506266 128.739021 
L 116.340757 128.739021 
L 117.175248 128.739021 
L 118.009739 128.739021 
L 118.84423 128.739021 
L 119.678721 128.739021 
L 120.513212 128.739021 
L 121.347703 128.739021 
L 122.182194 128.739021 
L 123.016685 128.739021 
L 123.851175 128.739021 
L 124.685666 128.739021 
L 125.520157 128.739021 
L 126.354648 128.739021 
L 127.189139 128.739021 
L 128.02363 128.739021 
L 128.858121 128.739021 
L 129.692612 128.739021 
L 130.527103 128.739021 
L 131.361594 128.739021 
L 132.196084 128.739021 
L 133.030575 128.739021 
L 133.865066 128.739021 
L 134.699557 128.739021 
L 135.534048 128.739021 
L 136.368539 128.739021 
L 137.20303 128.739021 
L 138.037521 128.739021 
L 138.872012 128.739021 
L 139.706503 128.739021 
L 140.540994 128.739021 
L 141.375484 128.739021 
L 142.209975 128.739021 
L 143.044466 128.739021 
L 143.878957 128.739021 
L 144.713448 128.739021 
L 145.547939 128.739021 
L 146.38243 128.739021 
L 147.216921 128.739021 
L 148.051412 128.739021 
L 148.885903 128.739021 
L 149.720393 128.739021 
L 150.554884 128.739021 
L 151.389375 128.739021 
L 152.223866 128.739021 
L 153.058357 128.739021 
L 153.892848 128.739021 
L 154.727339 128.739021 
L 155.56183 128.739021 
L 156.396321 128.739021 
L 157.230812 128.739021 
L 158.065302 128.739021 
L 158.899793 128.739021 
L 159.734284 128.739021 
L 160.568775 128.739021 
L 161.403266 128.739021 
L 162.237757 128.739021 
L 163.072248 128.739021 
L 163.906739 128.739021 
L 164.74123 128.739021 
L 165.575721 128.739021 
L 166.410212 128.739021 
L 167.244702 128.739021 
L 168.079193 128.739021 
L 168.913684 128.739021 
L 169.748175 128.739021 
L 170.582666 128.739021 
L 171.417157 128.739021 
L 172.251648 128.739021 
L 173.086139 128.739021 
L 173.92063 128.739021 
L 174.755121 128.739021 
L 175.589611 128.739021 
L 176.424102 128.739021 
L 177.258593 128.739021 
L 178.093084 128.739021 
L 178.927575 128.739021 
L 179.762066 128.739021 
L 180.596557 128.739021 
L 181.431048 128.739021 
L 182.265539 128.739021 
L 183.10003 128.739021 
L 183.93452 128.739021 
L 184.769011 128.739021 
L 185.603502 128.739021 
L 186.437993 128.739021 
L 187.272484 128.739021 
L 188.106975 128.739021 
L 188.941466 128.739021 
L 189.775957 128.739021 
L 190.610448 128.739021 
L 191.444939 128.739021 
L 191.444939 69.822761 
L 191.444939 69.822761 
L 190.610448 70.483413 
L 189.775957 71.122587 
L 188.941466 71.740471 
L 188.106975 72.337256 
L 187.272484 72.913136 
L 186.437993 73.468307 
L 185.603502 74.002967 
L 184.769011 74.517316 
L 183.93452 75.011558 
L 183.10003 75.485898 
L 182.265539 75.940543 
L 181.431048 76.375703 
L 180.596557 76.79159 
L 179.762066 77.188418 
L 178.927575 77.566403 
L 178.093084 77.925763 
L 177.258593 78.266719 
L 176.424102 78.589492 
L 175.589611 78.894307 
L 174.755121 79.181391 
L 173.92063 79.450971 
L 173.086139 79.703277 
L 172.251648 79.938541 
L 171.417157 80.156997 
L 170.582666 80.358881 
L 169.748175 80.544429 
L 168.913684 80.713881 
L 168.079193 80.867477 
L 167.244702 81.00546 
L 166.410212 81.128073 
L 165.575721 81.235564 
L 164.74123 81.328178 
L 163.906739 81.406164 
L 163.072248 81.469775 
L 162.237757 81.51926 
L 161.403266 81.554874 
L 160.568775 81.576872 
L 159.734284 81.585509 
L 158.899793 81.581045 
L 158.065302 81.563738 
L 157.230812 81.533849 
L 156.396321 81.49164 
L 155.56183 81.437374 
L 154.727339 81.371316 
L 153.892848 81.293732 
L 153.058357 81.204889 
L 152.223866 81.105056 
L 151.389375 80.994502 
L 150.554884 80.873498 
L 149.720393 80.742317 
L 148.885903 80.601232 
L 148.051412 80.450517 
L 147.216921 80.290447 
L 146.38243 80.1213 
L 145.547939 79.943353 
L 144.713448 79.756886 
L 143.878957 79.562177 
L 143.044466 79.359508 
L 142.209975 79.149161 
L 141.375484 78.931419 
L 140.540994 78.706565 
L 139.706503 78.474885 
L 138.872012 78.236665 
L 138.037521 77.992191 
L 137.20303 77.74175 
L 136.368539 77.485632 
L 135.534048 77.224126 
L 134.699557 76.957523 
L 133.865066 76.686112 
L 133.030575 76.410188 
L 132.196084 76.130041 
L 131.361594 75.845966 
L 130.527103 75.558258 
L 129.692612 75.267211 
L 128.858121 74.973122 
L 128.02363 74.676287 
L 127.189139 74.377004 
L 126.354648 74.07557 
L 125.520157 73.772286 
L 124.685666 73.467449 
L 123.851175 73.161361 
L 123.016685 72.854322 
L 122.182194 72.546635 
L 121.347703 72.2386 
L 120.513212 71.930522 
L 119.678721 71.622703 
L 118.84423 71.315448 
L 118.009739 71.00906 
L 117.175248 70.703847 
L 116.340757 70.400112 
L 115.506266 70.098164 
L 114.671776 69.798308 
L 113.837285 69.500852 
L 113.002794 69.206104 
L 112.168303 68.914372 
L 111.333812 68.625967 
L 110.499321 68.341196 
L 109.66483 68.060371 
L 108.830339 67.783801 
L 107.995848 67.511798 
L 107.161357 67.244673 
L 106.326866 66.982738 
L 105.492376 66.726305 
L 104.657885 66.475688 
L 103.823394 66.231198 
L 102.988903 65.993151 
L 102.154412 65.761859 
L 101.319921 65.537637 
L 100.48543 65.320801 
L 99.650939 65.111665 
L 98.816448 64.910544 
L 97.981957 64.717756 
L 97.147467 64.533615 
L 96.312976 64.358439 
L 95.478485 64.192544 
L 94.643994 64.036249 
L 93.809503 63.88987 
L 92.975012 63.753725 
L 92.140521 63.628134 
L 91.30603 63.513414 
L 90.471539 63.409884 
L 89.637048 63.317864 
L 88.802558 63.237673 
L 87.968067 63.169631 
L 87.133576 63.114058 
L 86.299085 63.071274 
L 85.464594 63.041599 
L 84.630103 63.025356 
L 83.795612 63.022864 
L 82.961121 63.034446 
L 82.12663 63.060422 
L 81.292139 63.101116 
L 80.457648 63.156847 
L 79.623158 63.22794 
L 78.788667 63.314716 
L 77.954176 63.417499 
L 77.119685 63.536611 
L 76.285194 63.672375 
L 75.450703 63.825116 
L 74.616212 63.995155 
L 73.781721 64.182818 
L 72.94723 64.388428 
L 72.112739 64.612309 
L 71.278249 64.854785 
L 70.443758 65.116182 
L 69.609267 65.396824 
L 68.774776 65.697034 
L 67.940285 66.01714 
L 67.105794 66.357465 
z
" clip-path="url(#p8d25215b3a)" style="fill: #fa0000"/>
   </g>
   <g id="PolyCollection_2">
    <path d="M 25.381249 128.739021 
L 25.381249 190.669091 
L 66.690624 190.669091 
L 66.690624 128.739021 
L 66.690624 128.739021 
L 25.381249 128.739021 
z
" clip-path="url(#p8d25215b3a)" style="fill: #0e75cf"/>
   </g>
   <g id="PolyCollection_3">
    <path d="M 165.833126 165.897063 
L 165.833126 190.669091 
L 190.618751 190.669091 
L 190.618751 165.897063 
L 190.618751 165.897063 
L 165.833126 165.897063 
z
" clip-path="url(#p8d25215b3a)" style="fill: #ffec02"/>
   </g>
   <g id="matplotlib.axis_1"/>
   <g id="matplotlib.axis_2"/>
   <g id="line2d_1">
    <path d="M 25.381249 116.376746 
L 28.719213 109.52104 
L 32.057176 103.235372 
L 35.39514 97.498657 
L 38.733103 92.289826 
L 42.071067 87.58782 
L 45.409031 83.3716 
L 48.746994 79.620143 
L 51.250467 77.098917 
L 53.75394 74.818453 
L 56.257412 72.769909 
L 58.760885 70.944447 
L 61.264358 69.33324 
L 63.76783 67.927472 
L 66.271303 66.718336 
L 68.774776 65.697034 
L 72.112739 64.612309 
L 75.450703 63.825116 
L 78.788667 63.314716 
L 82.12663 63.060422 
L 85.464594 63.041599 
L 88.802558 63.237673 
L 92.140521 63.628134 
L 96.312976 64.358439 
L 100.48543 65.320801 
L 105.492376 66.726305 
L 111.333812 68.625967 
L 119.678721 71.622703 
L 132.196084 76.130041 
L 138.037521 77.992191 
L 143.044466 79.359508 
L 147.216921 80.290447 
L 151.389375 80.994502 
L 155.56183 81.437374 
L 158.899793 81.581045 
L 162.237757 81.51926 
L 165.575721 81.235564 
L 168.913684 80.713881 
L 172.251648 79.938541 
L 175.589611 78.894307 
L 178.927575 77.566403 
L 182.265539 75.940543 
L 185.603502 74.002967 
L 188.941466 71.740471 
L 191.444939 69.822761 
L 191.444939 69.822761 
" clip-path="url(#p8d25215b3a)" style="fill: none; stroke: #000000; stroke-width: 2; stroke-linecap: square"/>
   </g>
   <g id="line2d_2">
    <path d="M 25.381249 190.669091 
L 190.618751 190.669091 
" clip-path="url(#p8d25215b3a)" style="fill: none; stroke: #000000; stroke-width: 2; stroke-linecap: square"/>
   </g>
   <g id="line2d_3">
    <path d="M 25.381249 190.669091 
L 25.381249 117.615347 
" clip-path="url(#p8d25215b3a)" style="fill: none; stroke: #000000; stroke-width: 2; stroke-linecap: square"/>
   </g>
   <g id="line2d_4">
    <path d="M 190.618751 190.669091 
L 190.618751 71.309082 
" clip-path="url(#p8d25215b3a)" style="fill: none; stroke: #000000; stroke-width: 2; stroke-linecap: square"/>
   </g>
   <g id="line2d_5">
    <path d="M 66.690624 190.669091 
L 66.690624 67.304392 
" clip-path="url(#p8d25215b3a)" style="fill: none; stroke: #000000; stroke-width: 2; stroke-linecap: square"/>
   </g>
   <g id="line2d_6">
    <path d="M 25.381249 128.739021 
L 190.618751 128.739021 
" clip-path="url(#p8d25215b3a)" style="fill: none; stroke: #000000; stroke-width: 2; stroke-linecap: square"/>
   </g>
   <g id="line2d_7">
    <path d="M 165.833126 190.669091 
L 165.833126 128.739021 
" clip-path="url(#p8d25215b3a)" style="fill: none; stroke: #000000; stroke-width: 2; stroke-linecap: square"/>
   </g>
   <g id="line2d_8">
    <path d="M 165.833126 165.897063 
L 190.618751 165.897063 
" clip-path="url(#p8d25215b3a)" style="fill: none; stroke: #000000; stroke-width: 2; stroke-linecap: square"/>
   </g>
   <g id="line2d_9">
    <path d="M 23.563636 190.669091 
L 23.563636 54.422937 
" clip-path="url(#p8d25215b3a)" style="fill: none; stroke: #ffffff; stroke-width: 2; stroke-linecap: square"/>
   </g>
   <g id="line2d_10">
    <path d="M 192.436364 190.669091 
L 192.436364 29.650909 
" clip-path="url(#p8d25215b3a)" style="fill: none; stroke: #ffffff; stroke-width: 2; stroke-linecap: square"/>
   </g>
   <g id="patch_3">
    <path d="M 15.12 198.72 
L 15.12 21.6 
" style="fill: none"/>
   </g>
   <g id="patch_4">
    <path d="M 200.88 198.72 
L 200.88 21.6 
" style="fill: none"/>
   </g>
   <g id="patch_5">
    <path d="M 15.12 198.72 
L 200.88 198.72 
" style="fill: none"/>
   </g>
   <g id="patch_6">
    <path d="M 15.12 21.6 
L 200.88 21.6 
" style="fill: none"/>
   </g>
   <g id="text_1">
    <!-- \bfseries Mondrian Forests -->
    <g transform="translate(19.785309 40.841892) scale(0.19 -0.19)">
     <defs>
      <path id="Montserrat-Bold-4d" d="M 5581 0 
L 5568 4480 
L 4717 4480 
L 3066 1696 
L 1389 4480 
L 531 4480 
L 531 0 
L 1504 0 
L 1504 2630 
L 2816 473 
L 3283 473 
L 4602 2688 
L 4608 0 
L 5581 0 
z
" transform="scale(0.015625)"/>
      <path id="Montserrat-Bold-6f" d="M 2099 -64 
C 3194 -64 3987 672 3987 1727 
C 3987 2783 3194 3520 2099 3520 
C 1005 3520 205 2783 205 1727 
C 205 672 1005 -64 2099 -64 
z
M 2099 755 
C 1600 755 1216 1120 1216 1727 
C 1216 2335 1600 2700 2099 2700 
C 2598 2700 2976 2335 2976 1727 
C 2976 1120 2598 755 2099 755 
z
" transform="scale(0.015625)"/>
      <path id="Montserrat-Bold-6e" d="M 2554 3520 
C 2086 3520 1683 3359 1414 3065 
L 1414 3456 
L 461 3456 
L 461 0 
L 1459 0 
L 1459 1708 
C 1459 2358 1805 2655 2285 2655 
C 2726 2655 2982 2397 2982 1835 
L 2982 0 
L 3981 0 
L 3981 1990 
C 3981 3046 3366 3520 2554 3520 
z
" transform="scale(0.015625)"/>
      <path id="Montserrat-Bold-64" d="M 2970 4736 
L 2970 3103 
C 2720 3385 2362 3520 1939 3520 
C 966 3520 218 2828 218 1727 
C 218 627 966 -64 1939 -64 
C 2400 -64 2765 83 3014 384 
L 3014 0 
L 3968 0 
L 3968 4736 
L 2970 4736 
z
M 2112 755 
C 1613 755 1229 1120 1229 1727 
C 1229 2335 1613 2700 2112 2700 
C 2605 2700 2989 2335 2989 1727 
C 2989 1120 2605 755 2112 755 
z
" transform="scale(0.015625)"/>
      <path id="Montserrat-Bold-72" d="M 1414 2999 
L 1414 3456 
L 461 3456 
L 461 0 
L 1459 0 
L 1459 1631 
C 1459 2307 1824 2611 2374 2611 
C 2451 2611 2515 2604 2598 2598 
L 2598 3520 
C 2067 3507 1658 3333 1414 2999 
z
" transform="scale(0.015625)"/>
      <path id="Montserrat-Bold-69" d="M 960 3942 
C 1331 3942 1581 4185 1581 4518 
C 1581 4825 1331 5056 960 5056 
C 589 5056 339 4812 339 4499 
C 339 4185 589 3942 960 3942 
z
M 461 0 
L 1459 0 
L 1459 3456 
L 461 3456 
L 461 0 
z
" transform="scale(0.015625)"/>
      <path id="Montserrat-Bold-61" d="M 1850 3520 
C 1299 3520 742 3372 365 3103 
L 723 2406 
C 973 2604 1350 2726 1715 2726 
C 2253 2726 2509 2476 2509 2048 
L 1715 2048 
C 666 2048 237 1625 237 996 
C 237 384 717 -64 1523 -64 
C 2029 -64 2387 102 2573 416 
L 2573 0 
L 3507 0 
L 3507 1990 
C 3507 3033 2899 3520 1850 3520 
z
M 1773 608 
C 1421 608 1210 782 1210 1043 
C 1210 1284 1357 1465 1824 1465 
L 2509 1465 
L 2509 1097 
C 2394 768 2106 608 1773 608 
z
" transform="scale(0.015625)"/>
      <path id="Montserrat-Bold-46" d="M 3917 3647 
L 3917 4480 
L 531 4480 
L 531 0 
L 1568 0 
L 1568 1663 
L 3642 1663 
L 3642 2496 
L 1568 2496 
L 1568 3647 
L 3917 3647 
z
" transform="scale(0.015625)"/>
      <path id="Montserrat-Bold-65" d="M 3834 1734 
C 3834 2841 3053 3520 2042 3520 
C 992 3520 205 2777 205 1747 
C 205 684 979 -64 2170 -64 
C 2790 -64 3270 128 3590 492 
L 3059 1087 
C 2822 850 2560 736 2195 736 
C 1670 736 1306 1012 1210 1465 
L 3814 1465 
C 3821 1548 3834 1657 3834 1734 
z
M 2048 2764 
C 2496 2764 2822 2483 2893 2048 
L 1197 2048 
C 1267 2489 1594 2764 2048 2764 
z
" transform="scale(0.015625)"/>
      <path id="Montserrat-Bold-73" d="M 1619 -64 
C 2650 -64 3245 390 3245 1031 
C 3245 2407 1165 1818 1165 2427 
C 1165 2616 1357 2764 1805 2764 
C 2118 2764 2458 2697 2797 2494 
L 3130 3219 
C 2803 3411 2278 3520 1805 3520 
C 800 3520 211 3059 211 2386 
C 211 992 2291 1569 2291 1005 
C 2291 813 2118 691 1658 691 
C 1235 691 768 825 461 1024 
L 128 307 
C 448 96 1037 -64 1619 -64 
z
" transform="scale(0.015625)"/>
      <path id="Montserrat-Bold-74" d="M 2413 855 
C 2304 773 2157 729 2010 729 
C 1741 729 1581 887 1581 1177 
L 1581 2560 
L 2438 2560 
L 2438 3328 
L 1581 3328 
L 1581 4166 
L 582 4166 
L 582 3328 
L 51 3328 
L 51 2560 
L 582 2560 
L 582 1165 
C 582 352 1056 -64 1869 -64 
C 2176 -64 2477 6 2682 153 
L 2413 855 
z
" transform="scale(0.015625)"/>
     </defs>
     <use xlink:href="#Montserrat-Bold-4d" transform="scale(0.996264)"/>
     <use xlink:href="#Montserrat-Bold-6f" transform="translate(95.143198 0) scale(0.996264)"/>
     <use xlink:href="#Montserrat-Bold-6e" transform="translate(160.39846 0) scale(0.996264)"/>
     <use xlink:href="#Montserrat-Bold-64" transform="translate(229.638763 0) scale(0.996264)"/>
     <use xlink:href="#Montserrat-Bold-72" transform="translate(298.58026 0) scale(0.996264)"/>
     <use xlink:href="#Montserrat-Bold-69" transform="translate(341.12073 0) scale(0.996264)"/>
     <use xlink:href="#Montserrat-Bold-61" transform="translate(371.108237 0) scale(0.996264)"/>
     <use xlink:href="#Montserrat-Bold-6e" transform="translate(432.577678 0) scale(0.996264)"/>
     <use xlink:href="#Montserrat-Bold-46" transform="translate(529.613771 0) scale(0.996264)"/>
     <use xlink:href="#Montserrat-Bold-6f" transform="translate(591.880272 0) scale(0.996264)"/>
     <use xlink:href="#Montserrat-Bold-72" transform="translate(657.135534 0) scale(0.996264)"/>
     <use xlink:href="#Montserrat-Bold-65" transform="translate(699.177857 0) scale(0.996264)"/>
     <use xlink:href="#Montserrat-Bold-73" transform="translate(762.042062 0) scale(0.996264)"/>
     <use xlink:href="#Montserrat-Bold-74" transform="translate(814.943687 0) scale(0.996264)"/>
     <use xlink:href="#Montserrat-Bold-73" transform="translate(858.281201 0) scale(0.996264)"/>
    </g>
   </g>
  </g>
 </g>
 <defs>
  <clipPath id="p8d25215b3a">
   <rect x="15.12" y="21.6" width="185.76" height="177.12"/>
  </clipPath>
 </defs>
</svg>
