<?xml version="1.0" encoding="utf-8" standalone="no"?>
<!DOCTYPE svg PUBLIC "-//W3C//DTD SVG 1.1//EN"
  "http://www.w3.org/Graphics/SVG/1.1/DTD/svg11.dtd">
<svg xmlns:xlink="http://www.w3.org/1999/xlink" width="360pt" height="360pt" viewBox="0 0 360 360" xmlns="http://www.w3.org/2000/svg" version="1.1">
 <metadata>
  <rdf:RDF xmlns:dc="http://purl.org/dc/elements/1.1/" xmlns:cc="http://creativecommons.org/ns#" xmlns:rdf="http://www.w3.org/1999/02/22-rdf-syntax-ns#">
   <cc:Work>
    <dc:type rdf:resource="http://purl.org/dc/dcmitype/StillImage"/>
    <dc:date>2023-10-31T15:58:01.199742</dc:date>
    <dc:format>image/svg+xml</dc:format>
    <dc:creator>
     <cc:Agent>
      <dc:title>Matplotlib v3.8.0, https://matplotlib.org/</dc:title>
     </cc:Agent>
    </dc:creator>
   </cc:Work>
  </rdf:RDF>
 </metadata>
 <defs>
  <style type="text/css">*{stroke-linejoin: round; stroke-linecap: butt}</style>
 </defs>
 <g id="figure_1">
  <g id="patch_1">
   <path d="M 0 360 
L 360 360 
L 360 0 
L 0 0 
L 0 360 
z
" style="fill: none"/>
  </g>
  <g id="axes_1">
   <g id="patch_2">
    <path d="M 45 320.4 
L 324 320.4 
L 324 43.2 
L 45 43.2 
L 45 320.4 
z
" style="fill: none"/>
   </g>
   <g id="line2d_1">
    <path d="M 184.5 307.8 
L 311.318182 307.8 
L 311.318182 55.8 
L 57.681818 55.8 
L 57.681818 307.8 
L 184.5 307.8 
" clip-path="url(#pfd4d6fdf99)" style="fill: none; stroke: #d5b8f5; stroke-width: 24; stroke-linecap: square"/>
   </g>
   <g id="patch_3">
    <path d="M 184.5 307.8 
L 311.318182 307.8 
L 311.318182 55.8 
L 57.681818 55.8 
L 57.681818 307.8 
z
" clip-path="url(#pfd4d6fdf99)" style="fill: #d5b8f5"/>
   </g>
   <g id="PolyCollection_1">
    <path d="M 126.056243 77.545067 
L 126.056243 199.8 
L 128.441702 199.8 
L 130.827162 199.8 
L 133.212621 199.8 
L 135.598081 199.8 
L 137.98354 199.8 
L 140.369 199.8 
L 142.754459 199.8 
L 145.139919 199.8 
L 147.525378 199.8 
L 149.910838 199.8 
L 152.296297 199.8 
L 154.681757 199.8 
L 157.067216 199.8 
L 159.452676 199.8 
L 161.838135 199.8 
L 164.223595 199.8 
L 166.609054 199.8 
L 168.994513 199.8 
L 171.379973 199.8 
L 173.765432 199.8 
L 176.150892 199.8 
L 178.536351 199.8 
L 180.921811 199.8 
L 183.30727 199.8 
L 185.69273 199.8 
L 188.078189 199.8 
L 190.463649 199.8 
L 192.849108 199.8 
L 195.234568 199.8 
L 197.620027 199.8 
L 200.005487 199.8 
L 202.390946 199.8 
L 204.776405 199.8 
L 207.161865 199.8 
L 209.547324 199.8 
L 211.932784 199.8 
L 214.318243 199.8 
L 216.703703 199.8 
L 219.089162 199.8 
L 221.474622 199.8 
L 223.860081 199.8 
L 226.245541 199.8 
L 228.631 199.8 
L 231.01646 199.8 
L 233.401919 199.8 
L 235.787379 199.8 
L 238.172838 199.8 
L 240.558298 199.8 
L 242.943757 199.8 
L 245.329216 199.8 
L 247.714676 199.8 
L 250.100135 199.8 
L 252.485595 199.8 
L 254.871054 199.8 
L 257.256514 199.8 
L 259.641973 199.8 
L 262.027433 199.8 
L 264.412892 199.8 
L 266.798352 199.8 
L 269.183811 199.8 
L 271.569271 199.8 
L 273.95473 199.8 
L 276.34019 199.8 
L 278.725649 199.8 
L 281.111109 199.8 
L 283.496568 199.8 
L 285.882027 199.8 
L 288.267487 199.8 
L 290.652946 199.8 
L 293.038406 199.8 
L 295.423865 199.8 
L 297.809325 199.8 
L 300.194784 199.8 
L 302.580244 199.8 
L 302.580244 85.7228 
L 302.580244 85.7228 
L 300.194784 87.753385 
L 297.809325 89.647673 
L 295.423865 91.40818 
L 293.038406 93.037483 
L 290.652946 94.538217 
L 288.267487 95.913078 
L 285.882027 97.164816 
L 283.496568 98.296236 
L 281.111109 99.310197 
L 278.725649 100.209609 
L 276.34019 100.99743 
L 273.95473 101.676668 
L 271.569271 102.250375 
L 269.183811 102.721652 
L 266.798352 103.09364 
L 264.412892 103.369524 
L 262.027433 103.552529 
L 259.641973 103.64592 
L 257.256514 103.653001 
L 254.871054 103.577112 
L 252.485595 103.421629 
L 250.100135 103.189962 
L 247.714676 102.885555 
L 245.329216 102.511884 
L 242.943757 102.072456 
L 240.558298 101.570808 
L 238.172838 101.010507 
L 235.787379 100.395144 
L 233.401919 99.728341 
L 231.01646 99.013743 
L 228.631 98.255019 
L 226.245541 97.455864 
L 223.860081 96.619993 
L 221.474622 95.751142 
L 219.089162 94.853069 
L 216.703703 93.929547 
L 214.318243 92.984372 
L 211.932784 92.02135 
L 209.547324 91.044308 
L 207.161865 90.057081 
L 204.776405 89.063521 
L 202.390946 88.067487 
L 200.005487 87.072848 
L 197.620027 86.083481 
L 195.234568 85.103268 
L 192.849108 84.136092 
L 190.463649 83.185839 
L 188.078189 82.256394 
L 185.69273 81.351636 
L 183.30727 80.47544 
L 180.921811 79.63167 
L 178.536351 78.824175 
L 176.150892 78.05679 
L 173.765432 77.333329 
L 171.379973 76.657582 
L 168.994513 76.033309 
L 166.609054 75.464236 
L 164.223595 74.95405 
L 161.838135 74.506393 
L 159.452676 74.124857 
L 157.067216 73.812974 
L 154.681757 73.574211 
L 152.296297 73.411962 
L 149.910838 73.329539 
L 147.525378 73.330164 
L 145.139919 73.416957 
L 142.754459 73.592925 
L 140.369 73.860954 
L 137.98354 74.223792 
L 135.598081 74.68404 
L 133.212621 75.244133 
L 130.827162 75.90633 
L 128.441702 76.672692 
L 126.056243 77.545067 
z
" clip-path="url(#pfd4d6fdf99)" style="fill: #fa0000"/>
   </g>
   <g id="PolyCollection_2">
    <path d="M 66.419756 131.838331 
L 66.419756 199.8 
L 68.805216 199.8 
L 71.190675 199.8 
L 73.576135 199.8 
L 75.961594 199.8 
L 78.347054 199.8 
L 80.732513 199.8 
L 83.117973 199.8 
L 85.503432 199.8 
L 87.888891 199.8 
L 90.274351 199.8 
L 92.65981 199.8 
L 95.04527 199.8 
L 97.430729 199.8 
L 99.816189 199.8 
L 102.201648 199.8 
L 104.587108 199.8 
L 106.972567 199.8 
L 109.358027 199.8 
L 111.743486 199.8 
L 114.128946 199.8 
L 116.514405 199.8 
L 118.899865 199.8 
L 121.285324 199.8 
L 123.670784 199.8 
L 123.670784 78.525072 
L 123.670784 78.525072 
L 121.285324 79.614071 
L 118.899865 80.813154 
L 116.514405 82.123112 
L 114.128946 83.544416 
L 111.743486 85.077188 
L 109.358027 86.721172 
L 106.972567 88.475709 
L 104.587108 90.339698 
L 102.201648 92.311568 
L 99.816189 94.389239 
L 97.430729 96.570086 
L 95.04527 98.850897 
L 92.65981 101.227829 
L 90.274351 103.696366 
L 87.888891 106.251267 
L 85.503432 108.886519 
L 83.117973 111.595279 
L 80.732513 114.369819 
L 78.347054 117.201468 
L 75.961594 120.080543 
L 73.576135 122.996289 
L 71.190675 125.936801 
L 68.805216 128.888957 
L 66.419756 131.838331 
z
" clip-path="url(#pfd4d6fdf99)" style="fill: #f9f9ee"/>
   </g>
   <g id="PolyCollection_3">
    <path d="M 66.419756 199.8 
L 66.419756 299.8 
L 125.459878 299.8 
L 125.459878 199.8 
L 125.459878 199.8 
L 66.419756 199.8 
z
" clip-path="url(#pfd4d6fdf99)" style="fill: #0e75cf"/>
   </g>
   <g id="PolyCollection_4">
    <path d="M 255.348146 255.8 
L 255.348146 299.8 
L 302.580244 299.8 
L 302.580244 255.8 
L 302.580244 255.8 
L 255.348146 255.8 
z
" clip-path="url(#pfd4d6fdf99)" style="fill: #ffec02"/>
   </g>
   <g id="PolyCollection_5">
    <path d="M 125.459878 199.8 
L 125.459878 299.8 
L 255.348146 299.8 
L 255.348146 199.8 
L 255.348146 199.8 
L 125.459878 199.8 
z
" clip-path="url(#pfd4d6fdf99)" style="fill: #f9f9ee"/>
   </g>
   <g id="PolyCollection_6">
    <path d="M 255.348146 199.8 
L 255.348146 255.8 
L 302.580244 255.8 
L 302.580244 199.8 
L 302.580244 199.8 
L 255.348146 199.8 
z
" clip-path="url(#pfd4d6fdf99)" style="fill: #f9f9ee"/>
   </g>
   <g id="matplotlib.axis_1"/>
   <g id="matplotlib.axis_2"/>
   <g id="line2d_2">
    <path d="M 184.5 299.8 
L 66.419756 299.8 
L 66.419756 131.838331 
L 68.805216 128.888957 
L 71.190675 125.936801 
L 73.576135 122.996289 
L 75.961594 120.080543 
L 78.347054 117.201468 
L 80.732513 114.369819 
L 83.117973 111.595279 
L 85.503432 108.886519 
L 87.888891 106.251267 
L 90.274351 103.696366 
L 92.65981 101.227829 
L 95.04527 98.850897 
L 97.430729 96.570086 
L 99.816189 94.389239 
L 102.201648 92.311568 
L 104.587108 90.339698 
L 106.972567 88.475709 
L 109.358027 86.721172 
L 111.743486 85.077188 
L 114.128946 83.544416 
L 116.514405 82.123112 
L 118.899865 80.813154 
L 121.285324 79.614071 
L 123.670784 78.525072 
L 126.056243 77.545067 
L 128.441702 76.672692 
L 130.827162 75.90633 
L 133.212621 75.244133 
L 135.598081 74.68404 
L 137.98354 74.223792 
L 140.369 73.860954 
L 142.754459 73.592925 
L 145.139919 73.416957 
L 147.525378 73.330164 
L 149.910838 73.329539 
L 152.296297 73.411962 
L 154.681757 73.574211 
L 157.067216 73.812974 
L 159.452676 74.124857 
L 161.838135 74.506393 
L 164.223595 74.95405 
L 166.609054 75.464236 
L 168.994513 76.033309 
L 171.379973 76.657582 
L 173.765432 77.333329 
L 176.150892 78.05679 
L 178.536351 78.824175 
L 180.921811 79.63167 
L 183.30727 80.47544 
L 185.69273 81.351636 
L 188.078189 82.256394 
L 190.463649 83.185839 
L 192.849108 84.136092 
L 195.234568 85.103268 
L 197.620027 86.083481 
L 200.005487 87.072848 
L 202.390946 88.067487 
L 204.776405 89.063521 
L 207.161865 90.057081 
L 209.547324 91.044308 
L 211.932784 92.02135 
L 214.318243 92.984372 
L 216.703703 93.929547 
L 219.089162 94.853069 
L 221.474622 95.751142 
L 223.860081 96.619993 
L 226.245541 97.455864 
L 228.631 98.255019 
L 231.01646 99.013743 
L 233.401919 99.728341 
L 235.787379 100.395144 
L 238.172838 101.010507 
L 240.558298 101.570808 
L 242.943757 102.072456 
L 245.329216 102.511884 
L 247.714676 102.885555 
L 250.100135 103.189962 
L 252.485595 103.421629 
L 254.871054 103.577112 
L 257.256514 103.653001 
L 259.641973 103.64592 
L 262.027433 103.552529 
L 264.412892 103.369524 
L 266.798352 103.09364 
L 269.183811 102.721652 
L 271.569271 102.250375 
L 273.95473 101.676668 
L 276.34019 100.99743 
L 278.725649 100.209609 
L 281.111109 99.310197 
L 283.496568 98.296236 
L 285.882027 97.164816 
L 288.267487 95.913078 
L 290.652946 94.538217 
L 293.038406 93.037483 
L 295.423865 91.40818 
L 297.809325 89.647673 
L 300.194784 87.753385 
L 302.580244 85.7228 
L 302.580244 299.8 
L 184.5 299.8 
" clip-path="url(#pfd4d6fdf99)" style="fill: none; stroke: #111111; stroke-width: 12; stroke-linecap: square"/>
   </g>
   <g id="line2d_3">
    <path d="M 125.459878 295.8 
L 125.459878 79.8 
" clip-path="url(#pfd4d6fdf99)" style="fill: none; stroke: #111111; stroke-width: 12; stroke-linecap: square"/>
   </g>
   <g id="line2d_4">
    <path d="M 68.781361 199.8 
L 300.218639 199.8 
" clip-path="url(#pfd4d6fdf99)" style="fill: none; stroke: #111111; stroke-width: 12; stroke-linecap: square"/>
   </g>
   <g id="line2d_5">
    <path d="M 255.348146 295.8 
L 255.348146 203.8 
" clip-path="url(#pfd4d6fdf99)" style="fill: none; stroke: #111111; stroke-width: 12; stroke-linecap: square"/>
   </g>
   <g id="line2d_6">
    <path d="M 257.709751 255.8 
L 300.218639 255.8 
" clip-path="url(#pfd4d6fdf99)" style="fill: none; stroke: #111111; stroke-width: 12; stroke-linecap: square"/>
   </g>
   <g id="patch_4">
    <path d="M 45 320.4 
L 45 43.2 
" style="fill: none"/>
   </g>
   <g id="patch_5">
    <path d="M 324 320.4 
L 324 43.2 
" style="fill: none"/>
   </g>
   <g id="patch_6">
    <path d="M 45 320.4 
L 324 320.4 
" style="fill: none"/>
   </g>
   <g id="patch_7">
    <path d="M 45 43.2 
L 324 43.2 
" style="fill: none"/>
   </g>
  </g>
 </g>
 <defs>
  <clipPath id="pfd4d6fdf99">
   <rect x="45" y="43.2" width="279" height="277.2"/>
  </clipPath>
 </defs>
</svg>
