<?xml version="1.0" encoding="utf-8" standalone="no"?>
<!DOCTYPE svg PUBLIC "-//W3C//DTD SVG 1.1//EN"
  "http://www.w3.org/Graphics/SVG/1.1/DTD/svg11.dtd">
<svg xmlns:xlink="http://www.w3.org/1999/xlink" width="360pt" height="360pt" viewBox="0 0 360 360" xmlns="http://www.w3.org/2000/svg" version="1.1">
 <metadata>
  <rdf:RDF xmlns:dc="http://purl.org/dc/elements/1.1/" xmlns:cc="http://creativecommons.org/ns#" xmlns:rdf="http://www.w3.org/1999/02/22-rdf-syntax-ns#">
   <cc:Work>
    <dc:type rdf:resource="http://purl.org/dc/dcmitype/StillImage"/>
    <dc:date>2023-10-19T00:41:36.767330</dc:date>
    <dc:format>image/svg+xml</dc:format>
    <dc:creator>
     <cc:Agent>
      <dc:title>Matplotlib v3.8.0, https://matplotlib.org/</dc:title>
     </cc:Agent>
    </dc:creator>
   </cc:Work>
  </rdf:RDF>
 </metadata>
 <defs>
  <style type="text/css">*{stroke-linejoin: round; stroke-linecap: butt}</style>
 </defs>
 <g id="figure_1">
  <g id="patch_1">
   <path d="M 0 360 
L 360 360 
L 360 0 
L 0 0 
L 0 360 
z
" style="fill: none"/>
  </g>
  <g id="axes_1">
   <g id="patch_2">
    <path d="M 45 320.4 
L 324 320.4 
L 324 43.2 
L 45 43.2 
L 45 320.4 
z
" style="fill: none"/>
   </g>
   <g id="PolyCollection_1">
    <path d="M 121.409548 60.630838 
L 121.409548 196.531586 
L 122.684102 196.531586 
L 123.958657 196.531586 
L 125.233212 196.531586 
L 126.507766 196.531586 
L 127.782321 196.531586 
L 129.056875 196.531586 
L 130.33143 196.531586 
L 131.605984 196.531586 
L 132.880539 196.531586 
L 134.155094 196.531586 
L 135.429648 196.531586 
L 136.704203 196.531586 
L 137.978757 196.531586 
L 139.253312 196.531586 
L 140.527867 196.531586 
L 141.802421 196.531586 
L 143.076976 196.531586 
L 144.35153 196.531586 
L 145.626085 196.531586 
L 146.90064 196.531586 
L 148.175194 196.531586 
L 149.449749 196.531586 
L 150.724303 196.531586 
L 151.998858 196.531586 
L 153.273413 196.531586 
L 154.547967 196.531586 
L 155.822522 196.531586 
L 157.097076 196.531586 
L 158.371631 196.531586 
L 159.646185 196.531586 
L 160.92074 196.531586 
L 162.195295 196.531586 
L 163.469849 196.531586 
L 164.744404 196.531586 
L 166.018958 196.531586 
L 167.293513 196.531586 
L 168.568068 196.531586 
L 169.842622 196.531586 
L 171.117177 196.531586 
L 172.391731 196.531586 
L 173.666286 196.531586 
L 174.940841 196.531586 
L 176.215395 196.531586 
L 177.48995 196.531586 
L 178.764504 196.531586 
L 180.039059 196.531586 
L 181.313614 196.531586 
L 182.588168 196.531586 
L 183.862723 196.531586 
L 185.137277 196.531586 
L 186.411832 196.531586 
L 187.686386 196.531586 
L 188.960941 196.531586 
L 190.235496 196.531586 
L 191.51005 196.531586 
L 192.784605 196.531586 
L 194.059159 196.531586 
L 195.333714 196.531586 
L 196.608269 196.531586 
L 197.882823 196.531586 
L 199.157378 196.531586 
L 200.431932 196.531586 
L 201.706487 196.531586 
L 202.981042 196.531586 
L 204.255596 196.531586 
L 205.530151 196.531586 
L 206.804705 196.531586 
L 208.07926 196.531586 
L 209.353815 196.531586 
L 210.628369 196.531586 
L 211.902924 196.531586 
L 213.177478 196.531586 
L 214.452033 196.531586 
L 215.726587 196.531586 
L 217.001142 196.531586 
L 218.275697 196.531586 
L 219.550251 196.531586 
L 220.824806 196.531586 
L 222.09936 196.531586 
L 223.373915 196.531586 
L 224.64847 196.531586 
L 225.923024 196.531586 
L 227.197579 196.531586 
L 228.472133 196.531586 
L 229.746688 196.531586 
L 231.021243 196.531586 
L 232.295797 196.531586 
L 233.570352 196.531586 
L 234.844906 196.531586 
L 236.119461 196.531586 
L 237.394016 196.531586 
L 238.66857 196.531586 
L 239.943125 196.531586 
L 241.217679 196.531586 
L 242.492234 196.531586 
L 243.766788 196.531586 
L 245.041343 196.531586 
L 246.315898 196.531586 
L 247.590452 196.531586 
L 248.865007 196.531586 
L 250.139561 196.531586 
L 251.414116 196.531586 
L 252.688671 196.531586 
L 253.963225 196.531586 
L 255.23778 196.531586 
L 256.512334 196.531586 
L 257.786889 196.531586 
L 259.061444 196.531586 
L 260.335998 196.531586 
L 261.610553 196.531586 
L 262.885107 196.531586 
L 264.159662 196.531586 
L 265.434217 196.531586 
L 266.708771 196.531586 
L 267.983326 196.531586 
L 269.25788 196.531586 
L 270.532435 196.531586 
L 271.806989 196.531586 
L 273.081544 196.531586 
L 274.356099 196.531586 
L 275.630653 196.531586 
L 276.905208 196.531586 
L 278.179762 196.531586 
L 279.454317 196.531586 
L 280.728872 196.531586 
L 282.003426 196.531586 
L 283.277981 196.531586 
L 284.552535 196.531586 
L 285.82709 196.531586 
L 287.101645 196.531586 
L 288.376199 196.531586 
L 289.650754 196.531586 
L 290.925308 196.531586 
L 292.199863 196.531586 
L 293.474418 196.531586 
L 294.748972 196.531586 
L 296.023527 196.531586 
L 297.298081 196.531586 
L 298.572636 196.531586 
L 299.84719 196.531586 
L 301.121745 196.531586 
L 302.3963 196.531586 
L 303.670854 196.531586 
L 304.945409 196.531586 
L 306.219963 196.531586 
L 307.494518 196.531586 
L 308.769073 196.531586 
L 310.043627 196.531586 
L 311.318182 196.531586 
L 311.318182 69.599694 
L 311.318182 69.599694 
L 310.043627 70.742846 
L 308.769073 71.848121 
L 307.494518 72.915859 
L 306.219963 73.9464 
L 304.945409 74.940093 
L 303.670854 75.897287 
L 302.3963 76.818338 
L 301.121745 77.703604 
L 299.84719 78.553449 
L 298.572636 79.368241 
L 297.298081 80.148349 
L 296.023527 80.894149 
L 294.748972 81.606018 
L 293.474418 82.284341 
L 292.199863 82.929502 
L 290.925308 83.54189 
L 289.650754 84.1219 
L 288.376199 84.669927 
L 287.101645 85.186372 
L 285.82709 85.671638 
L 284.552535 86.126132 
L 283.277981 86.550263 
L 282.003426 86.944446 
L 280.728872 87.309096 
L 279.454317 87.644634 
L 278.179762 87.951481 
L 276.905208 88.230063 
L 275.630653 88.48081 
L 274.356099 88.704152 
L 273.081544 88.900524 
L 271.806989 89.070364 
L 270.532435 89.214111 
L 269.25788 89.332209 
L 267.983326 89.425102 
L 266.708771 89.493239 
L 265.434217 89.537072 
L 264.159662 89.557053 
L 262.885107 89.553638 
L 261.610553 89.527285 
L 260.335998 89.478456 
L 259.061444 89.407614 
L 257.786889 89.315224 
L 256.512334 89.201754 
L 255.23778 89.067674 
L 253.963225 88.913458 
L 252.688671 88.739579 
L 251.414116 88.546514 
L 250.139561 88.334743 
L 248.865007 88.104746 
L 247.590452 87.857006 
L 246.315898 87.592009 
L 245.041343 87.310241 
L 243.766788 87.012191 
L 242.492234 86.698351 
L 241.217679 86.369213 
L 239.943125 86.025272 
L 238.66857 85.667024 
L 237.394016 85.294966 
L 236.119461 84.9096 
L 234.844906 84.511426 
L 233.570352 84.100948 
L 232.295797 83.67867 
L 231.021243 83.245098 
L 229.746688 82.800741 
L 228.472133 82.346108 
L 227.197579 81.881709 
L 225.923024 81.408057 
L 224.64847 80.925665 
L 223.373915 80.435048 
L 222.09936 79.936722 
L 220.824806 79.431205 
L 219.550251 78.919015 
L 218.275697 78.400673 
L 217.001142 77.876698 
L 215.726587 77.347614 
L 214.452033 76.813942 
L 213.177478 76.276208 
L 211.902924 75.734936 
L 210.628369 75.190651 
L 209.353815 74.643882 
L 208.07926 74.095155 
L 206.804705 73.544998 
L 205.530151 72.99394 
L 204.255596 72.442512 
L 202.981042 71.891242 
L 201.706487 71.340663 
L 200.431932 70.791304 
L 199.157378 70.243697 
L 197.882823 69.698375 
L 196.608269 69.155869 
L 195.333714 68.616711 
L 194.059159 68.081434 
L 192.784605 67.55057 
L 191.51005 67.024651 
L 190.235496 66.50421 
L 188.960941 65.989778 
L 187.686386 65.481888 
L 186.411832 64.98107 
L 185.137277 64.487854 
L 183.862723 64.002772 
L 182.588168 63.526352 
L 181.313614 63.059124 
L 180.039059 62.601614 
L 178.764504 62.154349 
L 177.48995 61.717854 
L 176.215395 61.292655 
L 174.940841 60.879272 
L 173.666286 60.478228 
L 172.391731 60.090041 
L 171.117177 59.715229 
L 169.842622 59.354308 
L 168.568068 59.007789 
L 167.293513 58.676185 
L 166.018958 58.360003 
L 164.744404 58.059749 
L 163.469849 57.775925 
L 162.195295 57.50903 
L 160.92074 57.25956 
L 159.646185 57.028008 
L 158.371631 56.814863 
L 157.097076 56.620608 
L 155.822522 56.445724 
L 154.547967 56.290687 
L 153.273413 56.155967 
L 151.998858 56.04203 
L 150.724303 55.949337 
L 149.449749 55.878342 
L 148.175194 55.829494 
L 146.90064 55.803234 
L 145.626085 55.8 
L 144.35153 55.820219 
L 143.076976 55.864313 
L 141.802421 55.932695 
L 140.527867 56.025771 
L 139.253312 56.143938 
L 137.978757 56.287583 
L 136.704203 56.457085 
L 135.429648 56.652813 
L 134.155094 56.875126 
L 132.880539 57.12437 
L 131.605984 57.400882 
L 130.33143 57.704987 
L 129.056875 58.036997 
L 127.782321 58.397211 
L 126.507766 58.785915 
L 125.233212 59.20338 
L 123.958657 59.649864 
L 122.684102 60.125608 
L 121.409548 60.630838 
z
" clip-path="url(#p0d6a508a17)" style="fill: #fa0000"/>
   </g>
   <g id="PolyCollection_2">
    <path d="M 57.681818 120.911714 
L 57.681818 196.531586 
L 58.956373 196.531586 
L 60.230927 196.531586 
L 61.505482 196.531586 
L 62.780037 196.531586 
L 64.054591 196.531586 
L 65.329146 196.531586 
L 66.6037 196.531586 
L 67.878255 196.531586 
L 69.15281 196.531586 
L 70.427364 196.531586 
L 71.701919 196.531586 
L 72.976473 196.531586 
L 74.251028 196.531586 
L 75.525582 196.531586 
L 76.800137 196.531586 
L 78.074692 196.531586 
L 79.349246 196.531586 
L 80.623801 196.531586 
L 81.898355 196.531586 
L 83.17291 196.531586 
L 84.447465 196.531586 
L 85.722019 196.531586 
L 86.996574 196.531586 
L 88.271128 196.531586 
L 89.545683 196.531586 
L 90.820238 196.531586 
L 92.094792 196.531586 
L 93.369347 196.531586 
L 94.643901 196.531586 
L 95.918456 196.531586 
L 97.193011 196.531586 
L 98.467565 196.531586 
L 99.74212 196.531586 
L 101.016674 196.531586 
L 102.291229 196.531586 
L 103.565783 196.531586 
L 104.840338 196.531586 
L 106.114893 196.531586 
L 107.389447 196.531586 
L 108.664002 196.531586 
L 109.938556 196.531586 
L 111.213111 196.531586 
L 112.487666 196.531586 
L 113.76222 196.531586 
L 115.036775 196.531586 
L 116.311329 196.531586 
L 117.585884 196.531586 
L 118.860439 196.531586 
L 120.134993 196.531586 
L 120.134993 61.165763 
L 120.134993 61.165763 
L 118.860439 61.730575 
L 117.585884 62.325446 
L 116.311329 62.950532 
L 115.036775 63.605968 
L 113.76222 64.291868 
L 112.487666 65.008326 
L 111.213111 65.755413 
L 109.938556 66.533177 
L 108.664002 67.341642 
L 107.389447 68.180807 
L 106.114893 69.050646 
L 104.840338 69.951107 
L 103.565783 70.882107 
L 102.291229 71.843536 
L 101.016674 72.835254 
L 99.74212 73.85709 
L 98.467565 74.90884 
L 97.193011 75.990266 
L 95.918456 77.101097 
L 94.643901 78.241025 
L 93.369347 79.409702 
L 92.094792 80.606746 
L 90.820238 81.831732 
L 89.545683 83.084192 
L 88.271128 84.363619 
L 86.996574 85.669459 
L 85.722019 87.00111 
L 84.447465 88.357926 
L 83.17291 89.739209 
L 81.898355 91.144211 
L 80.623801 92.57213 
L 79.349246 94.02211 
L 78.074692 95.493239 
L 76.800137 96.984545 
L 75.525582 98.494997 
L 74.251028 100.0235 
L 72.976473 101.568897 
L 71.701919 103.129961 
L 70.427364 104.7054 
L 69.15281 106.293846 
L 67.878255 107.893863 
L 66.6037 109.503934 
L 65.329146 111.122469 
L 64.054591 112.747793 
L 62.780037 114.37815 
L 61.505482 116.011698 
L 60.230927 117.646505 
L 58.956373 119.280549 
L 57.681818 120.911714 
z
" clip-path="url(#p0d6a508a17)" style="fill: #ffffee"/>
   </g>
   <g id="PolyCollection_3">
    <path d="M 57.681818 196.531586 
L 57.681818 307.8 
L 121.090909 307.8 
L 121.090909 196.531586 
L 121.090909 196.531586 
L 57.681818 196.531586 
z
" clip-path="url(#p0d6a508a17)" style="fill: #0e75cf"/>
   </g>
   <g id="PolyCollection_4">
    <path d="M 260.590909 258.841898 
L 260.590909 307.8 
L 311.318182 307.8 
L 311.318182 258.841898 
L 311.318182 258.841898 
L 260.590909 258.841898 
z
" clip-path="url(#p0d6a508a17)" style="fill: #ffec02"/>
   </g>
   <g id="PolyCollection_5">
    <path d="M 121.090909 196.531586 
L 121.090909 307.8 
L 260.590909 307.8 
L 260.590909 196.531586 
L 260.590909 196.531586 
L 121.090909 196.531586 
z
" clip-path="url(#p0d6a508a17)" style="fill: #ffffee"/>
   </g>
   <g id="PolyCollection_6">
    <path d="M 260.590909 196.531586 
L 260.590909 258.841898 
L 311.318182 258.841898 
L 311.318182 196.531586 
L 311.318182 196.531586 
L 260.590909 196.531586 
z
" clip-path="url(#p0d6a508a17)" style="fill: #ffffee"/>
   </g>
   <g id="matplotlib.axis_1"/>
   <g id="matplotlib.axis_2"/>
   <g id="line2d_1">
    <path d="M 57.681818 120.911714 
L 71.701919 103.129961 
L 78.074692 95.493239 
L 83.17291 89.739209 
L 88.271128 84.363619 
L 92.094792 80.606746 
L 95.918456 77.101097 
L 99.74212 73.85709 
L 103.565783 70.882107 
L 107.389447 68.180807 
L 111.213111 65.755413 
L 115.036775 63.605968 
L 118.860439 61.730575 
L 122.684102 60.125608 
L 126.507766 58.785915 
L 130.33143 57.704987 
L 134.155094 56.875126 
L 137.978757 56.287583 
L 141.802421 55.932695 
L 145.626085 55.8 
L 149.449749 55.878342 
L 153.273413 56.155967 
L 157.097076 56.620608 
L 162.195295 57.50903 
L 167.293513 58.676185 
L 172.391731 60.090041 
L 177.48995 61.717854 
L 183.862723 64.002772 
L 191.51005 67.024651 
L 201.706487 71.340663 
L 218.275697 78.400673 
L 225.923024 81.408057 
L 232.295797 83.67867 
L 237.394016 85.294966 
L 242.492234 86.698351 
L 247.590452 87.857006 
L 252.688671 88.739579 
L 256.512334 89.201754 
L 260.335998 89.478456 
L 264.159662 89.557053 
L 267.983326 89.425102 
L 271.806989 89.070364 
L 275.630653 88.48081 
L 279.454317 87.644634 
L 283.277981 86.550263 
L 287.101645 85.186372 
L 290.925308 83.54189 
L 294.748972 81.606018 
L 298.572636 79.368241 
L 302.3963 76.818338 
L 306.219963 73.9464 
L 310.043627 70.742846 
L 311.318182 69.599694 
L 311.318182 307.8 
L 57.681818 307.8 
L 57.681818 120.911714 
L 57.681818 120.911714 
" clip-path="url(#p0d6a508a17)" style="fill: none; stroke: #111111; stroke-width: 12; stroke-linecap: square"/>
   </g>
   <g id="line2d_2">
    <path d="M 121.090909 307.8 
L 121.090909 63.009488 
" clip-path="url(#p0d6a508a17)" style="fill: none; stroke: #111111; stroke-width: 12; stroke-linecap: square"/>
   </g>
   <g id="line2d_3">
    <path d="M 57.681818 196.531586 
L 311.318182 196.531586 
" clip-path="url(#p0d6a508a17)" style="fill: none; stroke: #111111; stroke-width: 12; stroke-linecap: square"/>
   </g>
   <g id="line2d_4">
    <path d="M 260.590909 307.8 
L 260.590909 196.531586 
" clip-path="url(#p0d6a508a17)" style="fill: none; stroke: #111111; stroke-width: 12; stroke-linecap: square"/>
   </g>
   <g id="line2d_5">
    <path d="M 260.590909 258.841898 
L 311.318182 258.841898 
" clip-path="url(#p0d6a508a17)" style="fill: none; stroke: #111111; stroke-width: 12; stroke-linecap: square"/>
   </g>
   <g id="patch_3">
    <path d="M 45 320.4 
L 45 43.2 
" style="fill: none"/>
   </g>
   <g id="patch_4">
    <path d="M 324 320.4 
L 324 43.2 
" style="fill: none"/>
   </g>
   <g id="patch_5">
    <path d="M 45 320.4 
L 324 320.4 
" style="fill: none"/>
   </g>
   <g id="patch_6">
    <path d="M 45 43.2 
L 324 43.2 
" style="fill: none"/>
   </g>
  </g>
 </g>
 <defs>
  <clipPath id="p0d6a508a17">
   <rect x="45" y="43.2" width="279" height="277.2"/>
  </clipPath>
 </defs>
</svg>
